<svg width="69" height="69" viewBox="0 0 69 69" fill="none" xmlns="http://www.w3.org/2000/svg">
<style>
  path { stroke: #0F1B2D; }
  @media (prefers-color-scheme: dark) {
    path { stroke: #FFFFFF; }
  }
</style>
<path d="M34.5 66.5C52.1731 66.5 66.5 52.1731 66.5 34.5C66.5 16.8269 52.1731 2.5 34.5 2.5C16.8269 2.5 2.5 16.8269 2.5 34.5C2.5 52.1731 16.8269 66.5 34.5 66.5Z" stroke-width="5"/>
<path d="M46 18.5C42 15.9 37.7 15 33.5 15C23.1 15 15.5 22.8 15.5 34.5C15.5 46.2 23.1 54 33.5 54C38.3 54 42.7 52.6 46.5 49.5" stroke-width="5" stroke-linecap="round"/>
<path d="M33.5 26.5L25.5 34.5L33.5 42.5" stroke-width="4" stroke-linecap="round" stroke-linejoin="round"/>
<path d="M40.5 26.5L48.5 34.5L40.5 42.5" stroke-width="4" stroke-linecap="round" stroke-linejoin="round"/>
</svg>
